<?xml version="1.0" standalone="no"?>
<svg viewBox="0 0 200 200" xmlns="http://www.w3.org/2000/svg">
  <path fill="#FF0066" d="M39.2,-54.7C51.4,-45.2,62.3,-34.5,66.5,-21.6C70.7,-8.7,68.3,6.3,65.8,23.6C63.2,40.9,60.7,60.5,49.7,72.2C38.8,83.9,19.4,87.7,1.5,85.6C-16.3,83.5,-32.7,75.5,-48.2,65.3C-63.8,55.1,-78.5,42.7,-80.9,28C-83.3,13.3,-73.5,-3.7,-65.2,-18.7C-56.9,-33.8,-50.2,-46.8,-39.6,-56.9C-29,-66.9,-14.5,-73.9,-0.5,-73.2C13.5,-72.5,27,-64.2,39.2,-54.7Z" transform="translate(100 100)" />
</svg>
